<svg id="Layer_1" data-name="Layer 1" xmlns="http://www.w3.org/2000/svg" viewBox="0 0 484.11 52.3"><defs><style>.cls-1{fill:#00aeef;}.cls-2{fill:#fff;}</style></defs><title>logo</title><path class="cls-1" d="M184.53,315.77L195,331.18H183.29L174.42,318h-7.77v13.21H156.22V282.61h19.5c10,0.07,17.94,7.64,17.94,17.68A17.36,17.36,0,0,1,184.53,315.77Zm-17.88-6.41h9c4.21,0,7.64-3.82,7.64-9.07s-3.43-9.07-7.64-9.07h-9v18.14Z" transform="translate(-152.89 -279.47)"/><path class="cls-1" d="M247.16,331.18H236l-4-9.33H215.55l-3.82,9.33h-11.2l20-48.58h6.67Zm-18.33-17.94-5-14c-1.49,4-3.3,9.46-5,14h10Z" transform="translate(-152.89 -279.47)"/><path class="cls-1" d="M266.53,331.18H256.17V282.61h10.36v48.58Z" transform="translate(-152.89 -279.47)"/><path class="cls-1" d="M325.34,331.18H314.27l-21.5-31.87v31.87H282.34V282.61h11l21.57,31.93V282.61h10.43v48.58Z" transform="translate(-152.89 -279.47)"/><path class="cls-1" d="M451.55,317.78c0,9.52-8.29,14-18.72,14-8.55,0-14.05-3.56-19.24-9.13l7.25-7.19c1.75,3.63,7.12,7.71,12,7.71,3.5-.06,8.29-1,8.29-5.38s-4.86-6-8.87-7.25c-7.32-2.2-16.19-5.83-16.19-15,0-8.81,8.29-13.41,16.77-13.41,7.25,0,14.06,3.56,19.17,9.2l-7,7c-2.2-2.91-6.74-7.58-12.18-7.58-3.11,0-6.41,1.36-6.41,4.86,0,4,4.86,5.57,8.55,6.74C442.74,304.63,451.55,308.39,451.55,317.78Z" transform="translate(-152.89 -279.47)"/><path class="cls-1" d="M502.66,282.61v48.58H492.3V311.24H474.48v19.95H464.12V282.61h10.36v19.95H492.3V282.61h10.36Z" transform="translate(-152.89 -279.47)"/><path class="cls-1" d="M527.73,331.18H517.36V282.61h10.36v48.58Z" transform="translate(-152.89 -279.47)"/><path class="cls-1" d="M586.54,331.18H575.46L554,299.32v31.87H543.53V282.61h11l21.57,31.93V282.61h10.43v48.58Z" transform="translate(-152.89 -279.47)"/><path class="cls-1" d="M637,322.57v8.61H601.89V282.61h33.94v8.61H612.26v10.43h19.3v8.68h-19.3v12.24H637Z" transform="translate(-152.89 -279.47)"/><path class="cls-2" d="M181.19,313.5l10.43,15.42H180l-8.87-13.21h-7.77v13.21H152.89V280.34h19.5c10,0.07,17.94,7.64,17.94,17.68A17.36,17.36,0,0,1,181.19,313.5Zm-17.88-6.41h9c4.21,0,7.64-3.82,7.64-9.07s-3.43-9.07-7.64-9.07h-9v18.14Z" transform="translate(-152.89 -279.47)"/><path class="cls-2" d="M243.83,328.92H232.69l-4-9.33H212.22l-3.82,9.33h-11.2l20-48.58h6.67ZM225.5,311l-5-14c-1.49,4-3.3,9.46-5,14h10Z" transform="translate(-152.89 -279.47)"/><path class="cls-2" d="M263.19,328.92H252.83V280.34h10.36v48.58Z" transform="translate(-152.89 -279.47)"/><path class="cls-2" d="M322,328.92H310.93l-21.5-31.87v31.87H279V280.34h11l21.57,31.93V280.34H322v48.58Z" transform="translate(-152.89 -279.47)"/><path class="cls-1" d="M374.38,289.47h4.53c4.93,0,6.92,1.39,6.92,6.87v2.54c0,4.48-1.29,6.22-4.38,6.77l4.38,15h-1.64l-4.33-14.78h-3.93v14.78h-1.54V289.47Zm4.53,14.93c4.13,0,5.38-1.14,5.38-5.52v-2.54c0-4.33-1.24-5.42-5.38-5.42h-3V304.4h3Z" transform="translate(-152.89 -279.47)"/><path class="cls-2" d="M448.22,315.51c0,9.52-8.29,14-18.72,14-8.55,0-14.05-3.56-19.24-9.13l7.25-7.19c1.75,3.63,7.12,7.71,12,7.71,3.5-.06,8.29-1,8.29-5.38s-4.86-6-8.87-7.25c-7.32-2.2-16.19-5.83-16.19-15,0-8.81,8.29-13.41,16.77-13.41,7.25,0,14.06,3.56,19.17,9.2l-7,7c-2.2-2.91-6.74-7.58-12.18-7.58-3.11,0-6.41,1.36-6.41,4.86,0,4,4.86,5.57,8.55,6.74C439.41,302.36,448.22,306.12,448.22,315.51Z" transform="translate(-152.89 -279.47)"/><path class="cls-2" d="M499.32,280.34v48.58H489V309H471.15v19.95H460.79V280.34h10.36v19.95H489V280.34h10.36Z" transform="translate(-152.89 -279.47)"/><path class="cls-2" d="M524.39,328.92H514V280.34h10.36v48.58Z" transform="translate(-152.89 -279.47)"/><path class="cls-2" d="M583.2,328.92H572.13l-21.5-31.87v31.87H540.2V280.34h11l21.57,31.93V280.34H583.2v48.58Z" transform="translate(-152.89 -279.47)"/><path class="cls-2" d="M633.66,320.31v8.61H598.56V280.34H632.5V289H608.92v10.43h19.3v8.68h-19.3v12.24h24.74Z" transform="translate(-152.89 -279.47)"/><rect class="cls-1" x="189.96" width="49.1" height="1.35"/><rect class="cls-1" x="189.96" y="48.78" width="49.1" height="1.35"/><g id="uvLgQ9.tif"><path class="cls-1" d="M368.17,309.52v0.66c0,0.28-.07.57-0.1,0.85a10.24,10.24,0,0,1-1.84,4.89A11.06,11.06,0,0,1,349.31,317a10.31,10.31,0,0,1-2.67-9.2,13.22,13.22,0,0,1,1.57-4.24c1.18-2.14,2.41-4.25,3.65-6.35,1.67-2.85,3.55-5.57,5.38-8.32l0-.08,0.06,0.05,1.28,1.91a145.12,145.12,0,0,1,7.74,12.72,13.49,13.49,0,0,1,1.73,5.25C368.11,309,368.14,309.27,368.17,309.52Z" transform="translate(-152.89 -279.47)"/></g></svg>