<svg id="Layer_1" data-name="Layer 1" xmlns="http://www.w3.org/2000/svg" viewBox="0 0 241.51 25.18"><defs><style>.cls-1{fill:#fff;}</style></defs><title>logo-white</title><path class="cls-1" d="M286.74,171.53l5.24,7.74h-5.86l-4.46-6.64h-3.9v6.64h-5.24v-24.4h9.79a8.86,8.86,0,0,1,9,8.88A8.72,8.72,0,0,1,286.74,171.53Zm-9-3.22h4.52c2.11,0,3.84-1.92,3.84-4.56s-1.72-4.55-3.84-4.55h-4.52v9.11Z" transform="translate(-272.52 -154.44)"/><path class="cls-1" d="M318.2,179.28h-5.6l-2-4.69h-8.3l-1.92,4.69h-5.63l10.05-24.4h3.35Zm-9.21-9-2.51-7c-0.75,2-1.66,4.75-2.51,7h5Z" transform="translate(-272.52 -154.44)"/><path class="cls-1" d="M327.93,179.28h-5.21v-24.4h5.21v24.4Z" transform="translate(-272.52 -154.44)"/><path class="cls-1" d="M357.48,179.28h-5.56l-10.8-16v16h-5.24v-24.4h5.53l10.83,16v-16h5.24v24.4Z" transform="translate(-272.52 -154.44)"/><path class="cls-1" d="M383.78,159.46h2.28c2.48,0,3.48.7,3.48,3.45v1.27c0,2.25-.65,3.12-2.2,3.4l2.2,7.53h-0.83l-2.18-7.43h-2v7.43h-0.78V159.46Zm2.28,7.5c2.07,0,2.7-.57,2.7-2.78v-1.27c0-2.17-.63-2.73-2.7-2.73h-1.5V167h1.5Z" transform="translate(-272.52 -154.44)"/><path class="cls-1" d="M420.87,172.54c0,4.78-4.16,7-9.4,7-4.29,0-7.06-1.79-9.66-4.59l3.64-3.61a7.62,7.62,0,0,0,6,3.87c1.76,0,4.16-.49,4.16-2.7s-2.44-3-4.46-3.64c-3.68-1.11-8.13-2.93-8.13-7.55,0-4.42,4.16-6.73,8.43-6.73a13.17,13.17,0,0,1,9.63,4.62l-3.51,3.51c-1.11-1.46-3.38-3.81-6.12-3.81-1.56,0-3.22.68-3.22,2.44,0,2,2.44,2.8,4.29,3.38C416.45,165.94,420.87,167.83,420.87,172.54Z" transform="translate(-272.52 -154.44)"/><path class="cls-1" d="M446.55,154.88v24.4h-5.21v-10h-8.95v10h-5.21v-24.4h5.21v10h8.95v-10h5.21Z" transform="translate(-272.52 -154.44)"/><path class="cls-1" d="M459.14,179.28h-5.21v-24.4h5.21v24.4Z" transform="translate(-272.52 -154.44)"/><path class="cls-1" d="M488.68,179.28h-5.56l-10.8-16v16h-5.24v-24.4h5.53l10.83,16v-16h5.24v24.4Z" transform="translate(-272.52 -154.44)"/><path class="cls-1" d="M514,175v4.33H496.39v-24.4h17v4.33H501.6v5.24h9.7v4.36h-9.7V175H514Z" transform="translate(-272.52 -154.44)"/><rect class="cls-1" x="95.42" width="24.66" height="0.68"/><rect class="cls-1" x="95.42" y="24.5" width="24.66" height="0.68"/><g id="uvLgQ9.tif"><path class="cls-1" d="M380.66,169.53v0.33c0,0.14,0,.28,0,0.43a5.14,5.14,0,0,1-.92,2.46,5.55,5.55,0,0,1-8.5.57,5.18,5.18,0,0,1-1.34-4.62,6.64,6.64,0,0,1,.79-2.13c0.59-1.07,1.21-2.13,1.83-3.19,0.84-1.43,1.79-2.8,2.7-4.18l0,0,0,0,0.64,1a72.9,72.9,0,0,1,3.89,6.39,6.78,6.78,0,0,1,.87,2.64C380.63,169.28,380.65,169.41,380.66,169.53Z" transform="translate(-272.52 -154.44)"/></g></svg>